# AST/ASF file generated using VICON BodyLanguage
# -----------------------------------------------
:version 1.10
:name VICON
:units
  mass 1.0
  length 0.45
  angle deg
:documentation
   .ast/.asf automatically generated from VICON data using
   VICON BodyBuilder and BodyLanguage model FoxedUp or BRILLIANT.MOD
:root
   order TX TY TZ RX RY RZ
   axis XYZ
   position 0 0 0  
   orientation 0 0 0 
:bonedata
  begin
     id 1 
     name lhipjoint
     direction 0.671379 -0.66392 0.329334 
     length 2.38647 
     axis 0 0 0  XYZ
  end
  begin
     id 2 
     name lfemur
     direction 0.34202 -0.939693 0  
     length 6.48179  
     axis 0 0 20  XYZ
    dof rx ry rz
    limits (-160.0 20.0)
           (-70.0 70.0)
           (-60.0 70.0)
  end
  begin
     id 3 
     name ltibia
     direction 0.34202 -0.939693 0   
     length 6.86524   
     axis 0 0 20   XYZ
    dof rx
    limits (-10.0 170.0)
  end
  begin
     id 4 
     name lfoot
     direction 0.204886 -0.562919 0.800715   
     length 1.73031   
     axis -90 7.62852e-016 20   XYZ
    dof rx rz
    limits (-45.0 90.0)
           (-70.0 20.0)
  end
  begin
     id 5 
     name ltoes
     direction 1.53548e-011 -4.21841e-011 1   
     length 0.828161   
     axis -90 7.62852e-016 20   XYZ
    dof rx
    limits (-90.0 20.0)
  end
  begin
     id 6 
     name rhipjoint
     direction -0.662732 -0.670855 0.332775   
     length 2.3618  
     axis 0 0 0  XYZ 
  end
  begin
     id 7 
     name rfemur
     direction -0.34202 -0.939693 0   
     length 6.3025   
     axis 0 0 -20   XYZ
    dof rx ry rz
    limits (-160.0 20.0)
           (-70.0 70.0)
           (-70.0 60.0)
  end
  begin
     id 8 
     name rtibia
     direction -0.34202 -0.939693 0   
     length 6.8732   
     axis 0 0 -20   XYZ
    dof rx
    limits (-10.0 170.0)
 end
 begin
     id 9 
     name rfoot
     direction -0.173856 -0.477665 0.861168   
     length 1.54784  
     axis -90 -7.62852e-016 -20   XYZ
    dof rx rz
    limits (-45.0 90.0)
           (-20.0 70.0)
  end
  begin
     id 10 
     name rtoes
     direction -1.53562e-011 -4.21802e-011 1   
     length 0.759618   
     axis -90 -7.62852e-016 -20   XYZ
    dof rx
    limits (-90.0 20.0)
  end
  begin
     id 11 
     name lowerback
     direction -0.0278357 0.999497 -0.0151789   
     length 1.97203   
     axis 0 0 0   XYZ
    dof rx ry rz
    limits (-20.0 45.0)
           (-30.0 30.0)
           (-30.0 30.0)
  end
  begin
     id 12 
     name upperback
     direction -0.00360622 0.997542 0.0699804   
     length 1.94709   
     axis 0 0 0   XYZ
    dof rx ry rz
    limits (-20.0 45.0)
           (-30.0 30.0)
           (-30.0 30.0)
  end
  begin
     id 13 
     name thorax
     direction 0.00907706 0.997048 0.0762461   
     length 1.95722   
     axis 0 0 0   XYZ
    dof rx ry rz
    limits (-20.0 45.0)
           (-30.0 30.0)
           (-30.0 30.0)
  end
  begin
     id 14 
     name lowerneck
     direction -0.0481835 0.99872 -0.0153927   
     length 1.63078   
     axis 0 0 0   XYZ
    dof rx ry rz
    limits (-20.0 45.0)
           (-30.0 30.0)
           (-30.0 30.0)
  end
  begin
     id 15 
     name upperneck
     direction 0.0859716 0.979226 -0.183644   
     length 1.62591   
     axis 0 0 0   XYZ
    dof rx ry rz
    limits (-20.0 45.0)
           (-30.0 30.0)
           (-30.0 30.0)
  end
  begin
     id 16
     name head
     direction 0.0324821 0.997629 -0.0606773  
     length 1.64811  
     axis 0 0 0   XYZ
    dof rx ry rz
    limits (-20.0 45.0)
           (-30.0 30.0)
           (-30.0 30.0)
  end
  begin
     id 17 
     name lclavicle
     direction 0.939609 0.311019 0.142835  
     length 3.70647  
     axis 0 0 0   XYZ
    dof ry rz
    limits (-20.0 10.0)
           (0.0 20.0)
  end
  begin
     id 18 
     name lhumerus
     direction 1 -4.48963e-011 -1.59838e-027   
     length 4.59207   
     axis 180 -30 -90   XYZ
    dof rx ry rz
    limits (-60.0 90.0)
           (-90.0 90.0)
           (-90.0 90.0)
  end
  begin
     id 19
     name lradius
     direction 1 -4.48957e-011 -1.3483e-026   
     length 2.98109   
     axis 180 -30 -90   XYZ
    dof rx
    limits (-10.0 170.0)
  end
  begin
     id 20
     name lwrist
     direction 1 -4.48954e-011 -3.11579e-026   
     length 1.49055   
     axis 2.00652e-014 90 90   XYZ
    dof ry
    limits (-180.0 0.0)
 end
  begin
     id 21 
     name lhand
     direction 1 -4.4911e-011 -6.23158e-026   
     length 0.480203   
     axis 3.97628e-014 90 90   XYZ
    dof rx rz
    limits (-90.0 90.0)
           (-45.0 45.0)
  end
  begin
     id 22 
     name lfingers
     direction 1 -4.48893e-011 -1.24632e-025   
     length 0.387152   
     axis 7.95256e-014 90 90   XYZ
    dof rx
    limits (0.0 90.0)
  end
  begin
     id 23
     name lthumb
     direction 0.707107 -6.35013e-011 0.707107   
     length 0.555875   
     axis -90 45 2.85299e-015   XYZ
    dof rx rz
    limits (-45.0 45.0)
           (-45.0 45.0)
  end
  begin
     id 24 
     name rclavicle
     direction -0.950396 0.30392 0.0661859   
     length 3.70894  
     axis 0 0 0   XYZ 
    dof ry rz
    limits (-10.0 20.0)
           (-20.0 0.0)
  end
  begin
     id 25 
     name rhumerus
     direction -1 -4.48957e-011 -2.96677e-027  
     length 4.76508   
     axis 180 30 90   XYZ
    dof rx ry rz
    limits (-90.0 60.0)
           (-90.0 90.0)
           (-90.0 90.0)
  end
  begin
     id 26 
     name rradius
     direction -1 -4.48974e-011 -1.44501e-026   
     length 2.78902   
     axis 180 30 90   XYZ
    dof rx
    limits (-10.0 170.0)
  end
  begin
     id 27 
     name rwrist
     direction -1 -4.48978e-011 -3.11579e-026   
     length 1.39451   
     axis 2.00652e-014 -90 -90   XYZ
    dof ry
    limits (-180.0 0.0)
  end
  begin
     id 28
     name rhand
     direction -1 -4.48956e-011 -6.23158e-026   
     length 0.721303   
     axis 3.97628e-014 -90 -90   XYZ
    dof rx rz
    limits (-90.0 90.0)
           (-45.0 45.0)
  end
  begin
     id 29
     name rfingers
     direction -1 -4.4899e-011 -1.24632e-025   
     length 0.581533   
     axis 7.95256e-014 -90 -90   XYZ
    dof rx
    limits (0.0 90.0)
  end
  begin
     id 30
     name rthumb
     direction -0.707107 -6.34911e-011 0.707107   
     length 0.834968   
     axis -90 -45 -2.85299e-015   XYZ
    dof rx rz
    limits (-45.0 45.0)
           (-45.0 45.0)
  end
:hierarchy
  begin
    root lhipjoint rhipjoint lowerback
    lhipjoint lfemur
    lfemur ltibia
    ltibia lfoot
    lfoot ltoes
    rhipjoint rfemur
    rfemur rtibia
    rtibia rfoot
    rfoot rtoes
    lowerback upperback
    upperback thorax
    thorax lowerneck lclavicle rclavicle
    lowerneck upperneck
    upperneck head
    lclavicle lhumerus
    lhumerus lradius
    lradius lwrist
    lwrist lhand lthumb
    lhand lfingers
    rclavicle rhumerus
    rhumerus rradius
    rradius rwrist
    rwrist rhand rthumb
    rhand rfingers
  end

#!OML:ASF I:\salsa\salsa 7_09\Patient 1\Session 1\dancerfemale.ASF
:FULLY-SPECIFIED
:DEGREES
997
root -13.7047 16.0086 6.0447 -1082.7 -228.525 356.619
lowerback 12.4132 0.0376045 -8.3354
upperback -4.07013 -0.97914 3.36569
thorax -11.3234 0.302686 8.69908
lowerneck 7.05433 -9.80322 -11.7842
upperneck 2.33894 -13.8233 5.37195
head 0.830106 -7.02131 3.85901
rclavicle 2.75814e-014 -6.36111e-015
rhumerus 4.36845 -3.35694 -101.544
rradius 73.7097
rwrist -1.70595
rhand 9.19261 402.324
rfingers 7.12502
rthumb 34.3602 15.6204
lclavicle 2.75814e-014 -6.36111e-015
lhumerus 5.28961 -32.5395 109.029
lradius 59.331
lwrist -32.3075
lhand -18.9805 31.0903
lfingers 7.12502
lthumb 7.32396 -299.056
rfemur -41.0992 -7.42148 19.7843
rtibia 58.1726
rfoot -7.88947 -12.8044
rtoes -19.7817
lfemur -3.30029 -7.45061 -28.2621
ltibia 30.743
lfoot -23.6215 -4.72877
ltoes -19.1274
998
root -13.9276 15.9661 6.1132 -1083.02 -227.595 357.127
lowerback 13.091 -0.219662 -6.85113
upperback -3.87036 -1.15371 3.02683
thorax -11.4687 0.0929462 7.50779
lowerneck 7.13849 -9.82946 -11.8395
upperneck 2.42881 -13.8738 5.64422
head 0.877041 -7.05254 3.96234
rclavicle 3.55825e-014 -1.27222e-014
rhumerus 4.44174 -3.96503 -101.93
rradius 72.3573
rwrist -1.60066
rhand 7.09124 404.129
rfingers 7.12502
rthumb 32.3625 16.9962
lclavicle 3.55825e-014 -1.27222e-014
lhumerus 6.55177 -30.7907 109.835
lradius 56.8066
lwrist -33.0922
lhand -19.9448 29.5374
lfingers 7.12502
lthumb 6.39314 -300.579
rfemur -41.2746 -6.8518 19.3754
rtibia 60.3745
rfoot -7.56667 -11.5879
rtoes -19.1717
lfemur -3.3522 -7.41821 -28.2131
ltibia 30.9753
lfoot -24.166 -5.34451
ltoes -18.3162
999
root -14.1388 15.9382 6.17712 -1083.96 -226.659 356.267
lowerback 13.2666 -0.433731 -6.29065
upperback -3.72353 -1.42791 2.40835
thorax -11.3722 -0.121008 6.55131
lowerneck 7.38844 -9.8887 -11.8507
upperneck 2.18318 -13.986 5.97967
head 0.791847 -7.112 4.1012
rclavicle 8.70677e-014 1.35174e-014
rhumerus 4.50725 -4.73217 -102.363
rradius 70.9664
rwrist -1.69421
rhand 5.36849 405.957
rfingers 7.12502
rthumb 30.7214 18.5032
lclavicle 8.70677e-014 1.35174e-014
lhumerus 7.91991 -29.2249 110.706
lradius 54.1685
lwrist -34.0215
lhand -20.951 27.9374
lfingers 7.12502
lthumb 5.42167 -302.152
rfemur -41.8415 -6.58238 18.0422
rtibia 62.7121
rfoot -6.88456 -10.4946
rtoes -18.0055
lfemur -3.98409 -7.59158 -29.1846
ltibia 31.261
lfoot -24.0139 -5.63897
ltoes -17.9239
1000
root -14.329 15.918 6.24914 -1085.46 -225.632 354.066
lowerback 13.0335 -0.531484 -6.89275
upperback -3.64974 -1.75025 1.53211
thorax -11.1109 -0.289494 5.97901
lowerneck 7.44961 -10.0181 -11.964
upperneck 2.0662 -14.1897 6.92362
head 0.772208 -7.21972 3.98127
rclavicle 4.29126e-014 -1.59028e-015
rhumerus 4.55387 -5.81624 -102.825
rradius 69.7702
rwrist -2.06789
rhand 4.57932 407.203
rfingers 7.12502
rthumb 29.9686 19.6103
lclavicle 4.29126e-014 -1.59028e-015
lhumerus 9.24564 -27.9826 111.681
lradius 51.4754
lwrist -34.7405
lhand -21.1581 26.7408
lfingers 7.12502
lthumb 5.22166 -303.344
rfemur -42.812 -6.55051 15.7752
rtibia 65.1986
rfoot -5.85428 -9.3194
rtoes -16.4857
lfemur -5.05231 -7.91293 -31.0893
ltibia 31.4293
lfoot -23.301 -5.85509
ltoes -16.9716
1001
root -14.5045 15.8944 6.32182 -1087.12 -224.473 351.41
lowerback 12.5885 -0.612234 -7.78542
upperback -3.53305 -2.0792 0.412289
thorax -10.6831 -0.453699 5.29736
lowerneck 7.30647 -10.2122 -12.1948
upperneck 2.11324 -14.4683 7.93506
head 0.924889 -7.37089 4.28824
rclavicle -7.11649e-014 4.37326e-015
rhumerus 4.50851 -7.21663 -103.345
rradius 68.8443
rwrist -2.41022
rhand 4.37934 408.026
rfingers 7.12502
rthumb 29.7778 20.3985
lclavicle -7.11649e-014 4.37326e-015
lhumerus 10.4199 -26.988 112.586
lradius 48.7863
lwrist -35.1664
lhand -20.9414 25.887
lfingers 7.12502
lthumb 5.43097 -304.203
rfemur -43.8002 -7.03619 13.1682
rtibia 67.7379
rfoot -4.36826 -8.07991
rtoes -14.9447
lfemur -6.11231 -8.20924 -33.3358
ltibia 31.4151
lfoot -22.3149 -6.26628
ltoes -15.6839
1002
root -14.6742 15.8639 6.38397 -1088.74 -223.321 348.932
lowerback 12.3074 -0.671421 -8.3176
upperback -3.42038 -2.31024 -0.865434
thorax -10.3933 -0.583268 4.22969
lowerneck 7.38637 -10.4699 -12.4325
upperneck 2.06855 -14.8557 9.12432
head 1.04441 -7.57856 4.65994
rclavicle -1.18277e-013 -3.33958e-014
rhumerus 4.00558 -8.78053 -103.668
rradius 68.2182
rwrist -2.76108
rhand 4.0934 408.689
rfingers 7.12502
rthumb 29.5049 21.0136
lclavicle -1.18277e-013 -3.33958e-014
lhumerus 11.1967 -26.0652 113.539
lradius 46.2172
lwrist -35.3967
lhand -21.1449 25.4681
lfingers 7.12502
lthumb 5.23447 -304.617
rfemur -44.4022 -7.90449 10.6459
rtibia 70.1851
rfoot -2.83302 -6.98599
rtoes -13.5876
lfemur -6.81632 -8.14579 -35.5245
ltibia 31.2086
lfoot -21.4013 -6.89285
ltoes -15.0614
1003
root -14.8418 15.8295 6.43382 -1090.09 -222.416 347.095
lowerback 12.1605 -0.695691 -8.15446
upperback -3.23433 -2.36555 -2.14645
thorax -10.1499 -0.66325 2.7465
lowerneck 7.50678 -10.7596 -12.6226
upperneck 1.96528 -15.285 10.3899
head 1.15323 -7.80645 5.04927
rclavicle 4.28257e-014 4.65156e-014
rhumerus 3.22108 -10.2335 -103.71
rradius 67.6889
rwrist -3.29347
rhand 3.57957 409.454
rfingers 7.12502
rthumb 29.0142 21.6931
lclavicle 4.28257e-014 4.65156e-014
lhumerus 11.8362 -25.2538 114.306
lradius 43.8287
lwrist -35.7255
lhand -21.4399 24.8596
lfingers 7.12502
lthumb 4.94963 -305.218
rfemur -44.4908 -8.78126 8.6169
rtibia 72.3969
rfoot -1.80527 -6.21695
rtoes -12.6747
lfemur -7.12002 -7.51598 -37.2397
ltibia 30.8079
lfoot -20.7192 -7.69974
ltoes -16.1791
1004
root -15.0065 15.8025 6.47199 -1091.32 -221.803 345.725
lowerback 12.0608 -0.718028 -7.50737
upperback -2.91475 -2.31791 -3.37678
thorax -9.81237 -0.718913 1.04014
lowerneck 7.55157 -11.0213 -12.8037
upperneck 1.83207 -15.6669 11.6109
head 1.26192 -8.00748 5.42178
rclavicle 3.3048e-014 -1.83876e-014
rhumerus 2.41226 -11.3418 -103.572
rradius 67.0066
rwrist -4.00789
rhand 3.15915 410.507
rfingers 7.12502
rthumb 28.6126 22.6777
lclavicle 3.3048e-014 -1.83876e-014
lhumerus 12.5153 -24.5316 114.691
lradius 41.7954
lwrist -36.4744
lhand -20.8198 23.7699
lfingers 7.12502
lthumb 5.5483 -306.323
rfemur -44.0243 -9.53238 6.95818
rtibia 74.2712
rfoot -1.39866 -5.95674
rtoes -12.1963
lfemur -7.06213 -6.35885 -38.5724
ltibia 30.25
lfoot -19.9892 -8.72908
ltoes -17.2666
1005
root -15.1626 15.7913 6.49779 -1092.66 -221.555 344.519
lowerback 11.8954 -0.781653 -6.3378
upperback -2.4541 -2.2199 -4.78889
thorax -9.31097 -0.77474 -1.15601
lowerneck 7.48481 -11.2273 -12.9102
upperneck 1.85317 -15.9648 12.8315
head 1.42297 -8.15958 5.77543
rclavicle 2.72521e-014 -1.45113e-014
rhumerus 1.74602 -12.0409 -103.725
rradius 66.1535
rwrist -4.98701
rhand 2.68717 411.538
rfingers 7.12502
rthumb 28.1616 23.6328
lclavicle 2.72521e-014 -1.45113e-014
lhumerus 13.2251 -23.8698 114.585
lradius 40.1586
lwrist -37.3462
lhand -20.0098 23.135
lfingers 7.12502
lthumb 6.33038 -306.98
rfemur -43.0094 -9.92671 5.43931
rtibia 75.7316
rfoot -1.3397 -6.17687
rtoes -12.2245
lfemur -6.69325 -4.54316 -39.6745
ltibia 29.5921
lfoot -19.1034 -10.0761
ltoes -15.6782
1006
root -15.3154 15.7901 6.51282 -1093.82 -221.761 343.644
lowerback 11.8639 -0.715092 -5.28732
upperback -2.1243 -1.96794 -5.72987
thorax -9.00667 -0.724892 -2.80841
lowerneck 7.3175 -11.3555 -13.3382
upperneck 2.16154 -16.1911 13.6656
head 1.67345 -8.26963 6.04802
rclavicle -1.00386e-014 1.78906e-014
rhumerus 1.10333 -12.0051 -103.322
rradius 65.063
rwrist -6.22902
rhand 2.04193 412.379
rfingers 7.12502
rthumb 27.5447 24.3745
lclavicle -1.00386e-014 1.78906e-014
lhumerus 13.7616 -22.6278 115.148
lradius 38.9348
lwrist -38.3019
lhand -20.0555 22.6944
lfingers 7.12502
lthumb 6.28625 -307.419
rfemur -41.78 -9.90512 4.26869
rtibia 76.8042
rfoot -1.20929 -6.59976
rtoes -12.262
lfemur -6.30766 -1.92279 -40.3288
ltibia 28.8959
lfoot -18.4741 -11.856
ltoes -15.1377
1007
root -15.4719 15.7876 6.52476 -1094.87 -222.278 343.052
lowerback 12.1615 -0.757506 -3.71665
upperback -1.91183 -1.82552 -6.72679
thorax -9.03461 -0.74797 -4.81451
lowerneck 7.00801 -11.3273 -13.4249
upperneck 2.66435 -16.176 14.2865
head 1.9268 -8.24396 6.21066
rclavicle 6.4605e-016 -9.26337e-014
rhumerus 0.933521 -11.688 -103.38
rradius 63.545
rwrist -7.35999
rhand 1.76159 413.151
rfingers 7.12502
rthumb 27.2766 25.1043
lclavicle 6.4605e-016 -9.26337e-014
lhumerus 14.0958 -21.5489 115.14
lradius 38.3209
lwrist -38.9628
lhand -20.3221 22.2151
lfingers 7.12502
lthumb 6.02881 -307.891
rfemur -40.422 -9.66771 3.41972
rtibia 77.5988
rfoot -0.999423 -6.95463
rtoes -11.9509
lfemur -5.96286 1.4363 -40.5756
ltibia 28.2957
lfoot -18.2685 -14.0591
ltoes -16.9591
1008
root -15.6195 15.7859 6.53994 -1095.91 -223.151 342.807
lowerback 12.6817 -0.800294 -2.08904
upperback -1.61531 -1.67246 -7.49534
thorax -9.0842 -0.767546 -6.63482
lowerneck 6.4902 -11.2265 -13.1686
upperneck 3.05441 -16.007 14.4801
head 2.09561 -8.13046 6.19758
rclavicle -4.42544e-014 -3.18055e-014
rhumerus 1.76384 -11.0324 -103.49
rradius 61.4758
rwrist -8.19939
rhand 1.8745 413.714
rfingers 7.12502
rthumb 27.3846 25.6841
lclavicle -4.42544e-014 -3.18055e-014
lhumerus 14.4567 -21.0402 114.564
lradius 38.4193
lwrist -39.0357
lhand -20.418 22.5283
lfingers 7.12502
lthumb 5.93624 -307.575
rfemur -38.8099 -9.12634 3.06055
rtibia 78.1785
rfoot -0.887161 -7.12116
rtoes -11.322
lfemur -5.54643 5.36425 -40.2721
ltibia 27.9391
lfoot -18.1769 -16.5785
ltoes -16.5501
1009
root -15.7468 15.7851 6.55909 -1096.63 -224.402 342.765
lowerback 13.2074 -0.894839 -0.895706
upperback -1.54431 -1.6601 -7.82949
thorax -9.36365 -0.839572 -7.72073
lowerneck 5.70936 -10.9571 -12.8116
upperneck 3.67416 -15.5832 14.0151
head 2.27856 -7.88104 5.96693
rclavicle -9.25343e-014 9.54166e-015
rhumerus 3.06375 -9.75628 -103.57
rradius 59.0152
rwrist -8.37689
rhand 1.85741 413.939
rfingers 7.12502
rthumb 27.3682 25.9064
lclavicle -9.25343e-014 9.54166e-015
lhumerus 14.512 -20.2234 113.834
lradius 39.408
lwrist -38.6475
lhand -20.6846 23.2753
lfingers 7.12502
lthumb 5.67884 -306.821
rfemur -37.5249 -8.45133 3.20002
rtibia 78.6737
rfoot -0.295955 -7.20706
rtoes -11.4142
lfemur -5.45592 9.59011 -39.5456
ltibia 27.8423
lfoot -17.9063 -19.4456
ltoes -14.7862
1010
root -15.8501 15.7732 6.58554 -1097.24 -225.745 342.155
lowerback 13.286 -1.07857 -0.482863
upperback -1.69548 -1.87253 -8.11472
thorax -9.63523 -0.981258 -8.2541
lowerneck 4.6662 -10.3732 -12.0085
upperneck 4.49105 -14.6833 13.0618
head 2.43378 -7.38307 5.53725
rclavicle 4.72114e-016 -2.14687e-014
rhumerus 4.8098 -8.40459 -104.549
rradius 56.2665
rwrist -7.46261
rhand 1.62708 413.984
rfingers 7.12502
rthumb 27.1479 25.9161
lclavicle 4.72114e-016 -2.14687e-014
lhumerus 14.2025 -19.2037 112.782
lradius 41.3151
lwrist -37.6544
lhand -21.1771 23.6153
lfingers 7.12502
lthumb 5.20338 -306.469
rfemur -37.0622 -7.8437 3.1468
rtibia 79.2457
rfoot 0.345367 -7.44083
rtoes -11.8383
lfemur -5.99113 12.1723 -39.4744
ltibia 27.9808
lfoot -17.8185 -20.7279
ltoes -14.381
